<?xml version="1.0" encoding="utf-8" standalone="no"?>
<!DOCTYPE svg PUBLIC "-//W3C//DTD SVG 1.1//EN"
  "http://www.w3.org/Graphics/SVG/1.1/DTD/svg11.dtd">
<svg xmlns:xlink="http://www.w3.org/1999/xlink" width="460.8pt" height="345.6pt" viewBox="0 0 460.8 345.6" xmlns="http://www.w3.org/2000/svg" version="1.1">
 <metadata>
  <rdf:RDF xmlns:dc="http://purl.org/dc/elements/1.1/" xmlns:cc="http://creativecommons.org/ns#" xmlns:rdf="http://www.w3.org/1999/02/22-rdf-syntax-ns#">
   <cc:Work>
    <dc:type rdf:resource="http://purl.org/dc/dcmitype/StillImage"/>
    <dc:date>2024-03-27T07:17:55.566168</dc:date>
    <dc:format>image/svg+xml</dc:format>
    <dc:creator>
     <cc:Agent>
      <dc:title>Matplotlib v3.8.3, https://matplotlib.org/</dc:title>
     </cc:Agent>
    </dc:creator>
   </cc:Work>
  </rdf:RDF>
 </metadata>
 <defs>
  <style type="text/css">*{stroke-linejoin: round; stroke-linecap: butt}</style>
 </defs>
 <g id="figure_1">
  <g id="patch_1">
   <path d="M 0 345.6 
L 460.8 345.6 
L 460.8 0 
L 0 0 
z
" style="fill: #ffffff"/>
  </g>
  <g id="axes_1">
   <g id="patch_2">
    <path d="M 57.6 307.584 
L 414.72 307.584 
L 414.72 41.472 
L 57.6 41.472 
z
" style="fill: #ffffff"/>
   </g>
   <g id="patch_3">
    <path d="M 122.530909 317.480727 
L 122.530909 185.524364 
L 187.461818 185.524364 
L 187.461818 317.480727 
z
" clip-path="url(#p0e7c6ef7c1)" style="fill: #ffffff; stroke: #4c4c4c; stroke-linejoin: miter"/>
   </g>
   <g id="patch_4">
    <path d="M 187.461818 317.480727 
L 187.461818 251.502545 
L 252.392727 251.502545 
L 252.392727 317.480727 
z
" clip-path="url(#p0e7c6ef7c1)" style="fill: #ffffff; stroke: #4c4c4c; stroke-linejoin: miter"/>
   </g>
   <g id="patch_5">
    <path d="M 252.392727 317.480727 
L 252.392727 273.495273 
L 317.323636 273.495273 
L 317.323636 317.480727 
z
" clip-path="url(#p0e7c6ef7c1)" style="fill: #ffffff; stroke: #4c4c4c; stroke-linejoin: miter"/>
   </g>
   <g id="patch_6">
    <path d="M 317.323636 317.480727 
L 317.323636 284.491636 
L 382.254545 284.491636 
L 382.254545 317.480727 
z
" clip-path="url(#p0e7c6ef7c1)" style="fill: #ffffff; stroke: #4c4c4c; stroke-linejoin: miter"/>
   </g>
   <g id="patch_7">
    <path d="M 382.254545 317.480727 
L 382.254545 291.089455 
L 447.185455 291.089455 
L 447.185455 317.480727 
z
" clip-path="url(#p0e7c6ef7c1)" style="fill: #ffffff; stroke: #4c4c4c; stroke-linejoin: miter"/>
   </g>
   <g id="patch_8">
    <path d="M 122.530909 317.480727 
L 122.530909 185.524364 
L 124.162339 188.758588 
L 125.793769 191.838065 
L 127.425199 194.773641 
L 129.056629 197.575173 
L 130.688058 200.251636 
L 132.319488 202.811224 
L 133.950918 205.261427 
L 135.582348 207.609111 
L 137.213778 209.860578 
L 138.845208 212.021625 
L 140.476638 214.097592 
L 142.108068 216.093405 
L 143.739497 218.01362 
L 145.370927 219.862451 
L 147.002357 221.643806 
L 148.633787 223.361314 
L 150.265217 225.018346 
L 151.896647 226.618041 
L 153.528077 228.163325 
L 155.159507 229.656927 
L 156.790937 231.101397 
L 158.422366 232.499121 
L 160.053796 233.852331 
L 161.685226 235.163121 
L 163.316656 236.433455 
L 164.948086 237.665176 
L 166.579516 238.86002 
L 168.210946 240.019617 
L 169.842376 241.145505 
L 171.473805 242.239133 
L 173.105235 243.301867 
L 174.736665 244.334999 
L 176.368095 245.339748 
L 177.999525 246.317268 
L 179.630955 247.268651 
L 181.262385 248.194932 
L 182.893815 249.097091 
L 184.525244 249.976058 
L 186.156674 250.832716 
L 187.788104 251.667904 
L 189.419534 252.482419 
L 191.050964 253.27702 
L 192.682394 254.052427 
L 194.313824 254.809328 
L 195.945254 255.548377 
L 197.576683 256.2702 
L 199.208113 256.97539 
L 200.839543 257.664517 
L 202.470973 258.338123 
L 204.102403 258.996726 
L 205.733833 259.640823 
L 207.365263 260.270888 
L 208.996693 260.887373 
L 210.628122 261.490714 
L 212.259552 262.081326 
L 213.890982 262.659608 
L 215.522412 263.225941 
L 217.153842 263.780694 
L 218.785272 264.324216 
L 220.416702 264.856847 
L 222.048132 265.378909 
L 223.679561 265.890715 
L 225.310991 266.392563 
L 226.942421 266.884742 
L 228.573851 267.367528 
L 230.205281 267.841188 
L 231.836711 268.305978 
L 233.468141 268.762144 
L 235.099571 269.209925 
L 236.731 269.64955 
L 238.36243 270.081239 
L 239.99386 270.505206 
L 241.62529 270.921656 
L 243.25672 271.330786 
L 244.88815 271.732789 
L 246.51958 272.127849 
L 248.15101 272.516144 
L 249.782439 272.897847 
L 251.413869 273.273124 
L 253.045299 273.642136 
L 254.676729 274.005038 
L 256.308159 274.361981 
L 257.939589 274.713111 
L 259.571019 275.058568 
L 261.202449 275.39849 
L 262.833878 275.733007 
L 264.465308 276.062247 
L 266.096738 276.386335 
L 267.728168 276.705391 
L 269.359598 277.019531 
L 270.991028 277.328867 
L 272.622458 277.63351 
L 274.253888 277.933564 
L 275.885317 278.229133 
L 277.516747 278.520317 
L 279.148177 278.807213 
L 280.779607 279.089914 
L 282.411037 279.368512 
L 284.042467 279.643096 
L 285.673897 279.913751 
L 287.305327 280.180562 
L 288.936757 280.44361 
L 290.568186 280.702973 
L 292.199616 280.95873 
L 293.831046 281.210953 
L 295.462476 281.459717 
L 297.093906 281.705092 
L 298.725336 281.947146 
L 300.356766 282.185947 
L 301.988196 282.42156 
L 303.619625 282.654048 
L 305.251055 282.883473 
L 306.882485 283.109894 
L 308.513915 283.333372 
L 310.145345 283.553962 
L 311.776775 283.77172 
L 313.408205 283.986701 
L 315.039635 284.198957 
L 316.671064 284.40854 
L 318.302494 284.6155 
L 319.933924 284.819886 
L 321.565354 285.021745 
L 323.196784 285.221125 
L 324.828214 285.41807 
L 326.459644 285.612625 
L 328.091074 285.804833 
L 329.722503 285.994736 
L 331.353933 286.182376 
L 332.985363 286.367793 
L 334.616793 286.551026 
L 336.248223 286.732113 
L 337.879653 286.911092 
L 339.511083 287.088 
L 341.142513 287.262872 
L 342.773942 287.435743 
L 344.405372 287.606647 
L 346.036802 287.775618 
L 347.668232 287.942689 
L 349.299662 288.10789 
L 350.931092 288.271254 
L 352.562522 288.432811 
L 354.193952 288.59259 
L 355.825381 288.750622 
L 357.456811 288.906934 
L 359.088241 289.061554 
L 360.719671 289.214509 
L 362.351101 289.365828 
L 363.982531 289.515534 
L 365.613961 289.663655 
L 367.245391 289.810215 
L 368.87682 289.955238 
L 370.50825 290.09875 
L 372.13968 290.240773 
L 373.77111 290.38133 
L 375.40254 290.520444 
L 377.03397 290.658137 
L 378.6654 290.79443 
L 380.29683 290.929346 
L 381.928259 291.062904 
L 383.559689 291.195125 
L 385.191119 291.32603 
L 386.822549 291.455637 
L 388.453979 291.583966 
L 390.085409 291.711035 
L 391.716839 291.836864 
L 393.348269 291.961469 
L 394.979698 292.08487 
L 396.611128 292.207083 
L 398.242558 292.328125 
L 399.873988 292.448014 
L 401.505418 292.566765 
L 403.136848 292.684395 
L 404.768278 292.800919 
L 406.399708 292.916353 
L 408.031138 293.030712 
L 409.662567 293.144011 
L 411.293997 293.256266 
L 412.925427 293.367489 
L 414.556857 293.477696 
L 416.188287 293.5869 
L 417.819717 293.695115 
L 419.451147 293.802354 
L 421.082577 293.90863 
L 422.714006 294.013957 
L 424.345436 294.118346 
L 425.976866 294.221811 
L 427.608296 294.324364 
L 429.239726 294.426016 
L 430.871156 294.526779 
L 432.502586 294.626666 
L 434.134016 294.725687 
L 435.765445 294.823854 
L 437.396875 294.921177 
L 439.028305 295.017668 
L 440.659735 295.113337 
L 442.291165 295.208194 
L 443.922595 295.302251 
L 445.554025 295.395516 
L 447.185455 295.488 
L 447.185455 317.480727 
z
" clip-path="url(#p0e7c6ef7c1)" style="fill: #d67b7b; fill-opacity: 0.690196; stroke: #ff0000; stroke-linejoin: miter"/>
   </g>
   <g id="matplotlib.axis_1">
    <g id="xtick_1">
     <g id="line2d_1">
      <defs>
       <path id="m19438c5f15" d="M 0 0 
L 0 3.5 
" style="stroke: #000000; stroke-width: 0.8"/>
      </defs>
      <g>
       <use xlink:href="#m19438c5f15" x="57.6" y="307.584" style="stroke: #000000; stroke-width: 0.8"/>
      </g>
     </g>
     <g id="text_1">
      <!-- 0 -->
      <g transform="translate(54.41875 322.182437) scale(0.1 -0.1)">
       <defs>
        <path id="DejaVuSans-30" d="M 2034 4250 
Q 1547 4250 1301 3770 
Q 1056 3291 1056 2328 
Q 1056 1369 1301 889 
Q 1547 409 2034 409 
Q 2525 409 2770 889 
Q 3016 1369 3016 2328 
Q 3016 3291 2770 3770 
Q 2525 4250 2034 4250 
z
M 2034 4750 
Q 2819 4750 3233 4129 
Q 3647 3509 3647 2328 
Q 3647 1150 3233 529 
Q 2819 -91 2034 -91 
Q 1250 -91 836 529 
Q 422 1150 422 2328 
Q 422 3509 836 4129 
Q 1250 4750 2034 4750 
z
" transform="scale(0.015625)"/>
       </defs>
       <use xlink:href="#DejaVuSans-30"/>
      </g>
     </g>
    </g>
    <g id="xtick_2">
     <g id="line2d_2">
      <g>
       <use xlink:href="#m19438c5f15" x="122.530909" y="307.584" style="stroke: #000000; stroke-width: 0.8"/>
      </g>
     </g>
     <g id="text_2">
      <!-- 1 -->
      <g transform="translate(119.349659 322.182437) scale(0.1 -0.1)">
       <defs>
        <path id="DejaVuSans-31" d="M 794 531 
L 1825 531 
L 1825 4091 
L 703 3866 
L 703 4441 
L 1819 4666 
L 2450 4666 
L 2450 531 
L 3481 531 
L 3481 0 
L 794 0 
L 794 531 
z
" transform="scale(0.015625)"/>
       </defs>
       <use xlink:href="#DejaVuSans-31"/>
      </g>
     </g>
    </g>
    <g id="xtick_3">
     <g id="line2d_3">
      <g>
       <use xlink:href="#m19438c5f15" x="187.461818" y="307.584" style="stroke: #000000; stroke-width: 0.8"/>
      </g>
     </g>
     <g id="text_3">
      <!-- 2 -->
      <g transform="translate(184.280568 322.182437) scale(0.1 -0.1)">
       <defs>
        <path id="DejaVuSans-32" d="M 1228 531 
L 3431 531 
L 3431 0 
L 469 0 
L 469 531 
Q 828 903 1448 1529 
Q 2069 2156 2228 2338 
Q 2531 2678 2651 2914 
Q 2772 3150 2772 3378 
Q 2772 3750 2511 3984 
Q 2250 4219 1831 4219 
Q 1534 4219 1204 4116 
Q 875 4013 500 3803 
L 500 4441 
Q 881 4594 1212 4672 
Q 1544 4750 1819 4750 
Q 2544 4750 2975 4387 
Q 3406 4025 3406 3419 
Q 3406 3131 3298 2873 
Q 3191 2616 2906 2266 
Q 2828 2175 2409 1742 
Q 1991 1309 1228 531 
z
" transform="scale(0.015625)"/>
       </defs>
       <use xlink:href="#DejaVuSans-32"/>
      </g>
     </g>
    </g>
    <g id="xtick_4">
     <g id="line2d_4">
      <g>
       <use xlink:href="#m19438c5f15" x="252.392727" y="307.584" style="stroke: #000000; stroke-width: 0.8"/>
      </g>
     </g>
     <g id="text_4">
      <!-- 3 -->
      <g transform="translate(249.211477 322.182437) scale(0.1 -0.1)">
       <defs>
        <path id="DejaVuSans-33" d="M 2597 2516 
Q 3050 2419 3304 2112 
Q 3559 1806 3559 1356 
Q 3559 666 3084 287 
Q 2609 -91 1734 -91 
Q 1441 -91 1130 -33 
Q 819 25 488 141 
L 488 750 
Q 750 597 1062 519 
Q 1375 441 1716 441 
Q 2309 441 2620 675 
Q 2931 909 2931 1356 
Q 2931 1769 2642 2001 
Q 2353 2234 1838 2234 
L 1294 2234 
L 1294 2753 
L 1863 2753 
Q 2328 2753 2575 2939 
Q 2822 3125 2822 3475 
Q 2822 3834 2567 4026 
Q 2313 4219 1838 4219 
Q 1578 4219 1281 4162 
Q 984 4106 628 3988 
L 628 4550 
Q 988 4650 1302 4700 
Q 1616 4750 1894 4750 
Q 2613 4750 3031 4423 
Q 3450 4097 3450 3541 
Q 3450 3153 3228 2886 
Q 3006 2619 2597 2516 
z
" transform="scale(0.015625)"/>
       </defs>
       <use xlink:href="#DejaVuSans-33"/>
      </g>
     </g>
    </g>
    <g id="xtick_5">
     <g id="line2d_5">
      <g>
       <use xlink:href="#m19438c5f15" x="317.323636" y="307.584" style="stroke: #000000; stroke-width: 0.8"/>
      </g>
     </g>
     <g id="text_5">
      <!-- 4 -->
      <g transform="translate(314.142386 322.182437) scale(0.1 -0.1)">
       <defs>
        <path id="DejaVuSans-34" d="M 2419 4116 
L 825 1625 
L 2419 1625 
L 2419 4116 
z
M 2253 4666 
L 3047 4666 
L 3047 1625 
L 3713 1625 
L 3713 1100 
L 3047 1100 
L 3047 0 
L 2419 0 
L 2419 1100 
L 313 1100 
L 313 1709 
L 2253 4666 
z
" transform="scale(0.015625)"/>
       </defs>
       <use xlink:href="#DejaVuSans-34"/>
      </g>
     </g>
    </g>
    <g id="xtick_6">
     <g id="line2d_6">
      <g>
       <use xlink:href="#m19438c5f15" x="382.254545" y="307.584" style="stroke: #000000; stroke-width: 0.8"/>
      </g>
     </g>
     <g id="text_6">
      <!-- 5 -->
      <g transform="translate(379.073295 322.182437) scale(0.1 -0.1)">
       <defs>
        <path id="DejaVuSans-35" d="M 691 4666 
L 3169 4666 
L 3169 4134 
L 1269 4134 
L 1269 2991 
Q 1406 3038 1543 3061 
Q 1681 3084 1819 3084 
Q 2600 3084 3056 2656 
Q 3513 2228 3513 1497 
Q 3513 744 3044 326 
Q 2575 -91 1722 -91 
Q 1428 -91 1123 -41 
Q 819 9 494 109 
L 494 744 
Q 775 591 1075 516 
Q 1375 441 1709 441 
Q 2250 441 2565 725 
Q 2881 1009 2881 1497 
Q 2881 1984 2565 2268 
Q 2250 2553 1709 2553 
Q 1456 2553 1204 2497 
Q 953 2441 691 2322 
L 691 4666 
z
" transform="scale(0.015625)"/>
       </defs>
       <use xlink:href="#DejaVuSans-35"/>
      </g>
     </g>
    </g>
   </g>
   <g id="matplotlib.axis_2">
    <g id="ytick_1">
     <g id="line2d_7">
      <defs>
       <path id="m6aa855543f" d="M 0 0 
L -3.5 0 
" style="stroke: #000000; stroke-width: 0.8"/>
      </defs>
      <g>
       <use xlink:href="#m6aa855543f" x="57.6" y="284.491636" style="stroke: #000000; stroke-width: 0.8"/>
      </g>
     </g>
     <g id="text_7">
      <!-- 0.25 -->
      <g transform="translate(28.334375 288.290855) scale(0.1 -0.1)">
       <defs>
        <path id="DejaVuSans-2e" d="M 684 794 
L 1344 794 
L 1344 0 
L 684 0 
L 684 794 
z
" transform="scale(0.015625)"/>
       </defs>
       <use xlink:href="#DejaVuSans-30"/>
       <use xlink:href="#DejaVuSans-2e" x="63.623047"/>
       <use xlink:href="#DejaVuSans-32" x="95.410156"/>
       <use xlink:href="#DejaVuSans-35" x="159.033203"/>
      </g>
     </g>
    </g>
    <g id="ytick_2">
     <g id="line2d_8">
      <g>
       <use xlink:href="#m6aa855543f" x="57.6" y="251.502545" style="stroke: #000000; stroke-width: 0.8"/>
      </g>
     </g>
     <g id="text_8">
      <!-- 0.50 -->
      <g transform="translate(28.334375 255.301764) scale(0.1 -0.1)">
       <use xlink:href="#DejaVuSans-30"/>
       <use xlink:href="#DejaVuSans-2e" x="63.623047"/>
       <use xlink:href="#DejaVuSans-35" x="95.410156"/>
       <use xlink:href="#DejaVuSans-30" x="159.033203"/>
      </g>
     </g>
    </g>
    <g id="ytick_3">
     <g id="line2d_9">
      <g>
       <use xlink:href="#m6aa855543f" x="57.6" y="218.513455" style="stroke: #000000; stroke-width: 0.8"/>
      </g>
     </g>
     <g id="text_9">
      <!-- 0.75 -->
      <g transform="translate(28.334375 222.312673) scale(0.1 -0.1)">
       <defs>
        <path id="DejaVuSans-37" d="M 525 4666 
L 3525 4666 
L 3525 4397 
L 1831 0 
L 1172 0 
L 2766 4134 
L 525 4134 
L 525 4666 
z
" transform="scale(0.015625)"/>
       </defs>
       <use xlink:href="#DejaVuSans-30"/>
       <use xlink:href="#DejaVuSans-2e" x="63.623047"/>
       <use xlink:href="#DejaVuSans-37" x="95.410156"/>
       <use xlink:href="#DejaVuSans-35" x="159.033203"/>
      </g>
     </g>
    </g>
    <g id="ytick_4">
     <g id="line2d_10">
      <g>
       <use xlink:href="#m6aa855543f" x="57.6" y="185.524364" style="stroke: #000000; stroke-width: 0.8"/>
      </g>
     </g>
     <g id="text_10">
      <!-- 1.00 -->
      <g transform="translate(28.334375 189.323582) scale(0.1 -0.1)">
       <use xlink:href="#DejaVuSans-31"/>
       <use xlink:href="#DejaVuSans-2e" x="63.623047"/>
       <use xlink:href="#DejaVuSans-30" x="95.410156"/>
       <use xlink:href="#DejaVuSans-30" x="159.033203"/>
      </g>
     </g>
    </g>
    <g id="ytick_5">
     <g id="line2d_11">
      <g>
       <use xlink:href="#m6aa855543f" x="57.6" y="152.535273" style="stroke: #000000; stroke-width: 0.8"/>
      </g>
     </g>
     <g id="text_11">
      <!-- 1.25 -->
      <g transform="translate(28.334375 156.334491) scale(0.1 -0.1)">
       <use xlink:href="#DejaVuSans-31"/>
       <use xlink:href="#DejaVuSans-2e" x="63.623047"/>
       <use xlink:href="#DejaVuSans-32" x="95.410156"/>
       <use xlink:href="#DejaVuSans-35" x="159.033203"/>
      </g>
     </g>
    </g>
    <g id="ytick_6">
     <g id="line2d_12">
      <g>
       <use xlink:href="#m6aa855543f" x="57.6" y="119.546182" style="stroke: #000000; stroke-width: 0.8"/>
      </g>
     </g>
     <g id="text_12">
      <!-- 1.50 -->
      <g transform="translate(28.334375 123.345401) scale(0.1 -0.1)">
       <use xlink:href="#DejaVuSans-31"/>
       <use xlink:href="#DejaVuSans-2e" x="63.623047"/>
       <use xlink:href="#DejaVuSans-35" x="95.410156"/>
       <use xlink:href="#DejaVuSans-30" x="159.033203"/>
      </g>
     </g>
    </g>
    <g id="ytick_7">
     <g id="line2d_13">
      <g>
       <use xlink:href="#m6aa855543f" x="57.6" y="86.557091" style="stroke: #000000; stroke-width: 0.8"/>
      </g>
     </g>
     <g id="text_13">
      <!-- 1.75 -->
      <g transform="translate(28.334375 90.35631) scale(0.1 -0.1)">
       <use xlink:href="#DejaVuSans-31"/>
       <use xlink:href="#DejaVuSans-2e" x="63.623047"/>
       <use xlink:href="#DejaVuSans-37" x="95.410156"/>
       <use xlink:href="#DejaVuSans-35" x="159.033203"/>
      </g>
     </g>
    </g>
    <g id="ytick_8">
     <g id="line2d_14">
      <g>
       <use xlink:href="#m6aa855543f" x="57.6" y="53.568" style="stroke: #000000; stroke-width: 0.8"/>
      </g>
     </g>
     <g id="text_14">
      <!-- 2.00 -->
      <g transform="translate(28.334375 57.367219) scale(0.1 -0.1)">
       <use xlink:href="#DejaVuSans-32"/>
       <use xlink:href="#DejaVuSans-2e" x="63.623047"/>
       <use xlink:href="#DejaVuSans-30" x="95.410156"/>
       <use xlink:href="#DejaVuSans-30" x="159.033203"/>
      </g>
     </g>
    </g>
   </g>
   <g id="line2d_15">
    <path d="M 90.065455 53.568 
L 91.860027 67.392 
L 93.6546 79.839855 
L 95.449173 91.10731 
L 97.243746 101.354667 
L 99.038319 110.714457 
L 100.832892 119.297208 
L 102.627465 127.195826 
L 104.422037 134.488976 
L 106.21661 141.243705 
L 108.011183 147.517515 
L 109.805756 153.36 
L 113.394902 163.917474 
L 116.984048 173.198769 
L 120.573193 181.422093 
L 124.162339 188.758588 
L 127.751485 195.344372 
L 131.34063 201.289062 
L 134.929776 206.681924 
L 138.518922 211.596387 
L 142.108068 216.093405 
L 145.697213 220.224 
L 149.286359 224.031203 
L 152.875505 227.551562 
L 156.464651 230.816317 
L 160.053796 233.852331 
L 163.642942 236.682831 
L 169.026661 240.586682 
L 174.410379 244.130682 
L 179.794098 247.362393 
L 185.177816 250.32135 
L 190.561535 253.040687 
L 195.945254 255.548377 
L 203.123545 258.603336 
L 210.301836 261.371077 
L 217.480128 263.890286 
L 224.658419 266.193 
L 233.631284 268.807296 
L 242.604148 271.168 
L 251.577012 273.310304 
L 262.34445 275.633211 
L 273.111887 277.724003 
L 285.673897 279.913751 
L 298.235907 281.874875 
L 312.59249 283.879555 
L 328.743646 285.881069 
L 344.894801 287.65754 
L 362.84053 289.410908 
L 382.580831 291.115952 
L 404.115706 292.754441 
L 427.445153 294.314149 
L 447.185455 295.488 
L 447.185455 295.488 
" clip-path="url(#p0e7c6ef7c1)" style="fill: none; stroke: #1f77b4; stroke-width: 1.5; stroke-linecap: square"/>
   </g>
   <g id="patch_9">
    <path d="M 57.6 307.584 
L 57.6 41.472 
" style="fill: none; stroke: #000000; stroke-width: 0.8; stroke-linejoin: miter; stroke-linecap: square"/>
   </g>
   <g id="patch_10">
    <path d="M 414.72 307.584 
L 414.72 41.472 
" style="fill: none; stroke: #000000; stroke-width: 0.8; stroke-linejoin: miter; stroke-linecap: square"/>
   </g>
   <g id="patch_11">
    <path d="M 57.6 307.584 
L 414.72 307.584 
" style="fill: none; stroke: #000000; stroke-width: 0.8; stroke-linejoin: miter; stroke-linecap: square"/>
   </g>
   <g id="patch_12">
    <path d="M 57.6 41.472 
L 414.72 41.472 
" style="fill: none; stroke: #000000; stroke-width: 0.8; stroke-linejoin: miter; stroke-linecap: square"/>
   </g>
   <g id="patch_13">
    <path d="M 101.46469 243.772524 
Q 107.181973 249.356816 112.899256 254.941108 
L 114.820785 252.973818 
Q 118.065223 258.23958 121.309661 263.505341 
Q 115.96901 260.385714 110.628359 257.266087 
L 112.549888 255.298797 
Q 106.832605 249.714505 101.115322 244.130213 
L 101.46469 243.772524 
z
" style="fill: #d67b7b; stroke: #d67b7b; stroke-linecap: round"/>
   </g>
   <g id="text_15">
    <!-- $\ln(x)$ -->
    <g transform="translate(70.586182 238.306909) scale(0.12 -0.12)">
     <defs>
      <path id="DejaVuSans-6c" d="M 603 4863 
L 1178 4863 
L 1178 0 
L 603 0 
L 603 4863 
z
" transform="scale(0.015625)"/>
      <path id="DejaVuSans-6e" d="M 3513 2113 
L 3513 0 
L 2938 0 
L 2938 2094 
Q 2938 2591 2744 2837 
Q 2550 3084 2163 3084 
Q 1697 3084 1428 2787 
Q 1159 2491 1159 1978 
L 1159 0 
L 581 0 
L 581 3500 
L 1159 3500 
L 1159 2956 
Q 1366 3272 1645 3428 
Q 1925 3584 2291 3584 
Q 2894 3584 3203 3211 
Q 3513 2838 3513 2113 
z
" transform="scale(0.015625)"/>
      <path id="DejaVuSans-28" d="M 1984 4856 
Q 1566 4138 1362 3434 
Q 1159 2731 1159 2009 
Q 1159 1288 1364 580 
Q 1569 -128 1984 -844 
L 1484 -844 
Q 1016 -109 783 600 
Q 550 1309 550 2009 
Q 550 2706 781 3412 
Q 1013 4119 1484 4856 
L 1984 4856 
z
" transform="scale(0.015625)"/>
      <path id="DejaVuSans-Oblique-78" d="M 3841 3500 
L 2234 1784 
L 3219 0 
L 2559 0 
L 1819 1388 
L 531 0 
L -166 0 
L 1556 1844 
L 641 3500 
L 1300 3500 
L 1972 2234 
L 3144 3500 
L 3841 3500 
z
" transform="scale(0.015625)"/>
      <path id="DejaVuSans-29" d="M 513 4856 
L 1013 4856 
Q 1481 4119 1714 3412 
Q 1947 2706 1947 2009 
Q 1947 1309 1714 600 
Q 1481 -109 1013 -844 
L 513 -844 
Q 928 -128 1133 580 
Q 1338 1288 1338 2009 
Q 1338 2731 1133 3434 
Q 928 4138 513 4856 
z
" transform="scale(0.015625)"/>
     </defs>
     <use xlink:href="#DejaVuSans-6c" transform="translate(0 0.015625)"/>
     <use xlink:href="#DejaVuSans-6e" transform="translate(27.783203 0.015625)"/>
     <use xlink:href="#DejaVuSans-28" transform="translate(91.162109 0.015625)"/>
     <use xlink:href="#DejaVuSans-Oblique-78" transform="translate(130.175781 0.015625)"/>
     <use xlink:href="#DejaVuSans-29" transform="translate(189.355469 0.015625)"/>
    </g>
   </g>
   <g id="patch_14">
    <path d="M 312.07522 252.10902 
Q 289.855078 251.976304 267.634935 251.843588 
L 267.61851 254.593539 
Q 261.628496 253.057735 255.638481 251.521932 
Q 261.646414 250.057789 267.654346 248.593646 
L 267.637921 251.343597 
Q 289.858064 251.476313 312.078206 251.609029 
L 312.07522 252.10902 
z
" style="fill: #4c4c4c; stroke: #4c4c4c; stroke-linecap: round"/>
   </g>
   <g id="text_16">
    <!-- $\frac{1}{x}$ -->
    <g transform="translate(317.323636 258.100364) scale(0.18 -0.18)">
     <use xlink:href="#DejaVuSans-31" transform="translate(0 43.965625) scale(0.7)"/>
     <use xlink:href="#DejaVuSans-Oblique-78" transform="translate(2 -25.565625) scale(0.7)"/>
     <path d="M 0 18.965625 
L 0 25.215625 
L 44.536133 25.215625 
L 44.536133 18.965625 
L 0 18.965625 
z
"/>
    </g>
   </g>
  </g>
 </g>
 <defs>
  <clipPath id="p0e7c6ef7c1">
   <rect x="57.6" y="41.472" width="357.12" height="266.112"/>
  </clipPath>
 </defs>
</svg>
