<?xml version="1.0" encoding="utf-8" standalone="no"?>
<!DOCTYPE svg PUBLIC "-//W3C//DTD SVG 1.1//EN"
  "http://www.w3.org/Graphics/SVG/1.1/DTD/svg11.dtd">
<svg xmlns:xlink="http://www.w3.org/1999/xlink" width="460.8pt" height="345.6pt" viewBox="0 0 460.8 345.6" xmlns="http://www.w3.org/2000/svg" version="1.1">
 <metadata>
  <rdf:RDF xmlns:dc="http://purl.org/dc/elements/1.1/" xmlns:cc="http://creativecommons.org/ns#" xmlns:rdf="http://www.w3.org/1999/02/22-rdf-syntax-ns#">
   <cc:Work>
    <dc:type rdf:resource="http://purl.org/dc/dcmitype/StillImage"/>
    <dc:date>2024-03-27T07:17:55.650241</dc:date>
    <dc:format>image/svg+xml</dc:format>
    <dc:creator>
     <cc:Agent>
      <dc:title>Matplotlib v3.8.3, https://matplotlib.org/</dc:title>
     </cc:Agent>
    </dc:creator>
   </cc:Work>
  </rdf:RDF>
 </metadata>
 <defs>
  <style type="text/css">*{stroke-linejoin: round; stroke-linecap: butt}</style>
 </defs>
 <g id="figure_1">
  <g id="patch_1">
   <path d="M 0 345.6 
L 460.8 345.6 
L 460.8 0 
L 0 0 
z
" style="fill: #ffffff"/>
  </g>
  <g id="axes_1">
   <g id="patch_2">
    <path d="M 57.6 307.584 
L 414.72 307.584 
L 414.72 41.472 
L 57.6 41.472 
z
" style="fill: #ffffff"/>
   </g>
   <g id="patch_3">
    <path d="M 117.12 307.584 
L 117.12 141.264 
L 119.524848 142.9272 
L 121.929697 144.557465 
L 124.334545 146.155765 
L 126.739394 147.723029 
L 129.144242 149.260154 
L 131.549091 150.768 
L 133.953939 152.247396 
L 136.358788 153.69914 
L 138.763636 155.124 
L 141.168485 156.522716 
L 143.573333 157.896 
L 145.978182 159.244541 
L 148.38303 160.569 
L 150.787879 161.870018 
L 153.192727 163.148211 
L 155.597576 164.404174 
L 158.002424 165.638483 
L 160.407273 166.851692 
L 162.812121 168.044339 
L 165.21697 169.216941 
L 167.621818 170.37 
L 170.026667 171.504 
L 172.431515 172.61941 
L 174.836364 173.716683 
L 177.241212 174.796258 
L 179.646061 175.85856 
L 182.050909 176.904 
L 184.455758 177.932976 
L 186.860606 178.945875 
L 189.265455 179.94307 
L 191.670303 180.924923 
L 194.075152 181.891786 
L 196.48 182.844 
L 198.884848 183.781895 
L 201.289697 184.705791 
L 203.694545 185.616 
L 206.099394 186.512824 
L 208.504242 187.396555 
L 210.909091 188.267478 
L 213.313939 189.125871 
L 215.718788 189.972 
L 218.123636 190.806128 
L 220.528485 191.628507 
L 222.933333 192.439385 
L 225.338182 193.239 
L 227.74303 194.027586 
L 230.147879 194.80537 
L 232.552727 195.572571 
L 234.957576 196.329405 
L 237.362424 197.076081 
L 239.767273 197.8128 
L 242.172121 198.539762 
L 244.57697 199.257158 
L 246.981818 199.965176 
L 249.386667 200.664 
L 251.791515 201.353806 
L 254.196364 202.034769 
L 256.601212 202.707057 
L 259.006061 203.370835 
L 261.410909 204.026264 
L 263.815758 204.6735 
L 266.220606 205.312696 
L 268.625455 205.944 
L 271.030303 206.567558 
L 273.435152 207.183512 
L 275.84 207.792 
L 278.244848 208.393157 
L 280.649697 208.987114 
L 283.054545 209.574 
L 285.459394 210.153941 
L 287.864242 210.727059 
L 290.269091 211.293474 
L 292.673939 211.853302 
L 295.078788 212.406659 
L 297.483636 212.953655 
L 299.888485 213.4944 
L 302.293333 214.029 
L 304.698182 214.557559 
L 307.10303 215.08018 
L 309.507879 215.596961 
L 311.912727 216.108 
L 314.317576 216.613392 
L 316.722424 217.113231 
L 319.127273 217.607607 
L 321.532121 218.096609 
L 323.93697 218.580324 
L 326.341818 219.058839 
L 328.746667 219.532235 
L 331.151515 220.000596 
L 333.556364 220.464 
L 335.961212 220.922526 
L 338.366061 221.376251 
L 340.770909 221.82525 
L 343.175758 222.269596 
L 345.580606 222.709361 
L 347.985455 223.144615 
L 350.390303 223.575429 
L 352.795152 224.001868 
L 355.2 224.424 
L 355.2 307.584 
z
" clip-path="url(#pf34f17b0e9)" style="fill: url(#hbd39944aa4); stroke-dasharray: 1,1.65; stroke-dashoffset: 0; stroke: #4c4c4c; stroke-linejoin: miter"/>
   </g>
   <g id="patch_4">
    <path d="M 117.12 307.584 
L 117.12 224.424 
L 355.2 224.424 
L 355.2 307.584 
z
" clip-path="url(#pf34f17b0e9)" style="fill: #d67b7b; fill-opacity: 0.627451"/>
   </g>
   <g id="matplotlib.axis_1">
    <g id="xtick_1">
     <g id="line2d_1">
      <defs>
       <path id="m851b5957ae" d="M 0 0 
L 0 3.5 
" style="stroke: #000000; stroke-width: 0.8"/>
      </defs>
      <g>
       <use xlink:href="#m851b5957ae" x="117.12" y="307.584" style="stroke: #000000; stroke-width: 0.8"/>
      </g>
     </g>
     <g id="text_1">
      <!-- N -->
      <g transform="translate(113.379375 322.182437) scale(0.1 -0.1)">
       <defs>
        <path id="DejaVuSans-4e" d="M 628 4666 
L 1478 4666 
L 3547 763 
L 3547 4666 
L 4159 4666 
L 4159 0 
L 3309 0 
L 1241 3903 
L 1241 0 
L 628 0 
L 628 4666 
z
" transform="scale(0.015625)"/>
       </defs>
       <use xlink:href="#DejaVuSans-4e"/>
      </g>
     </g>
    </g>
    <g id="xtick_2">
     <g id="line2d_2">
      <g>
       <use xlink:href="#m851b5957ae" x="355.2" y="307.584" style="stroke: #000000; stroke-width: 0.8"/>
      </g>
     </g>
     <g id="text_2">
      <!-- N+1 -->
      <g transform="translate(344.088281 322.182437) scale(0.1 -0.1)">
       <defs>
        <path id="DejaVuSans-2b" d="M 2944 4013 
L 2944 2272 
L 4684 2272 
L 4684 1741 
L 2944 1741 
L 2944 0 
L 2419 0 
L 2419 1741 
L 678 1741 
L 678 2272 
L 2419 2272 
L 2419 4013 
L 2944 4013 
z
" transform="scale(0.015625)"/>
        <path id="DejaVuSans-31" d="M 794 531 
L 1825 531 
L 1825 4091 
L 703 3866 
L 703 4441 
L 1819 4666 
L 2450 4666 
L 2450 531 
L 3481 531 
L 3481 0 
L 794 0 
L 794 531 
z
" transform="scale(0.015625)"/>
       </defs>
       <use xlink:href="#DejaVuSans-4e"/>
       <use xlink:href="#DejaVuSans-2b" x="74.804688"/>
       <use xlink:href="#DejaVuSans-31" x="158.59375"/>
      </g>
     </g>
    </g>
   </g>
   <g id="matplotlib.axis_2">
    <g id="ytick_1">
     <g id="line2d_3">
      <defs>
       <path id="mfe4f803a81" d="M 0 0 
L -3.5 0 
" style="stroke: #000000; stroke-width: 0.8"/>
      </defs>
      <g>
       <use xlink:href="#mfe4f803a81" x="57.6" y="141.264" style="stroke: #000000; stroke-width: 0.8"/>
      </g>
     </g>
     <g id="text_3">
      <!-- $\frac{1}{N}$ -->
      <g transform="translate(44.1 146.014) scale(0.1 -0.1)">
       <defs>
        <path id="DejaVuSans-Oblique-4e" d="M 1081 4666 
L 1931 4666 
L 3219 666 
L 4000 4666 
L 4616 4666 
L 3706 0 
L 2853 0 
L 1569 4025 
L 788 0 
L 172 0 
L 1081 4666 
z
" transform="scale(0.015625)"/>
       </defs>
       <use xlink:href="#DejaVuSans-31" transform="translate(4 43.965625) scale(0.7)"/>
       <use xlink:href="#DejaVuSans-Oblique-4e" transform="translate(0 -38.31875) scale(0.7)"/>
       <path d="M 0 18.965625 
L 0 25.215625 
L 52.363281 25.215625 
L 52.363281 18.965625 
L 0 18.965625 
z
"/>
      </g>
     </g>
    </g>
    <g id="ytick_2">
     <g id="line2d_4">
      <g>
       <use xlink:href="#mfe4f803a81" x="57.6" y="224.424" style="stroke: #000000; stroke-width: 0.8"/>
      </g>
     </g>
     <g id="text_4">
      <!-- $\frac{1}{N+1}$ -->
      <g transform="translate(31 229.174) scale(0.1 -0.1)">
       <use xlink:href="#DejaVuSans-31" transform="translate(69 43.965625) scale(0.7)"/>
       <use xlink:href="#DejaVuSans-Oblique-4e" transform="translate(0 -38.31875) scale(0.7)"/>
       <use xlink:href="#DejaVuSans-2b" transform="translate(66.000977 -38.31875) scale(0.7)"/>
       <use xlink:href="#DejaVuSans-31" transform="translate(138.291016 -38.31875) scale(0.7)"/>
       <path d="M 0 18.965625 
L 0 25.215625 
L 182.827148 25.215625 
L 182.827148 18.965625 
L 0 18.965625 
z
"/>
      </g>
     </g>
    </g>
   </g>
   <g id="line2d_5">
    <path d="M 7.371719 -1 
L 7.699394 -0.18572 
L 12.509091 10.905081 
L 17.318788 21.224348 
L 22.128485 30.849882 
L 26.938182 39.849366 
L 31.747879 48.281953 
L 36.557576 56.199573 
L 41.367273 63.648 
L 46.17697 70.667741 
L 50.986667 77.294769 
L 55.796364 83.561143 
L 60.606061 89.495523 
L 65.415758 95.123613 
L 70.225455 100.468528 
L 75.035152 105.551117 
L 79.844848 110.390228 
L 84.654545 115.002947 
L 89.464242 119.4048 
L 94.273939 123.609922 
L 99.083636 127.631213 
L 103.893333 131.480471 
L 108.70303 135.168503 
L 113.512727 138.705231 
L 118.322424 142.099779 
L 123.132121 145.360552 
L 127.941818 148.495304 
L 132.751515 151.511204 
L 137.561212 154.414884 
L 142.370909 157.212493 
L 147.180606 159.90974 
L 151.990303 162.51193 
L 156.8 165.024 
L 161.609697 167.450553 
L 166.419394 169.795883 
L 171.229091 172.064 
L 176.038788 174.258656 
L 180.848485 176.383363 
L 185.658182 178.441412 
L 190.467879 180.435892 
L 195.277576 182.369703 
L 200.087273 184.245573 
L 204.89697 186.066066 
L 209.706667 187.8336 
L 214.516364 189.550452 
L 219.326061 191.21877 
L 224.135758 192.840585 
L 228.945455 194.417814 
L 233.755152 195.952271 
L 238.564848 197.445672 
L 243.374545 198.899644 
L 248.184242 200.315726 
L 252.993939 201.695383 
L 257.803636 203.04 
L 262.613333 204.350897 
L 267.42303 205.629325 
L 272.232727 206.876477 
L 277.042424 208.093486 
L 281.852121 209.281433 
L 286.661818 210.441345 
L 291.471515 211.574204 
L 296.281212 212.680945 
L 301.090909 213.762462 
L 305.900606 214.819606 
L 310.710303 215.853192 
L 315.52 216.864 
L 320.329697 217.852774 
L 325.139394 218.820226 
L 329.949091 219.76704 
L 334.758788 220.693868 
L 339.568485 221.601337 
L 344.378182 222.490047 
L 349.187879 223.360573 
L 353.997576 224.213468 
L 358.807273 225.049263 
L 363.61697 225.868467 
L 368.426667 226.671568 
L 373.236364 227.459036 
L 378.046061 228.231325 
L 382.855758 228.988869 
L 387.665455 229.732085 
L 392.475152 230.461377 
L 397.284848 231.177132 
L 402.094545 231.879724 
L 406.904242 232.569513 
L 411.713939 233.246844 
L 416.523636 233.912054 
L 421.333333 234.565463 
L 426.14303 235.207385 
L 430.952727 235.838118 
L 435.762424 236.457952 
L 440.572121 237.067169 
L 445.381818 237.666038 
L 450.191515 238.254821 
L 455.001212 238.83377 
L 459.810909 239.40313 
L 461.8 239.634726 
" clip-path="url(#pf34f17b0e9)" style="fill: none; stroke: #1f77b4; stroke-width: 1.5; stroke-linecap: square"/>
   </g>
   <g id="patch_5">
    <path d="M 57.6 307.584 
L 57.6 41.472 
" style="fill: none; stroke: #000000; stroke-width: 0.8; stroke-linejoin: miter; stroke-linecap: square"/>
   </g>
   <g id="patch_6">
    <path d="M 414.72 307.584 
L 414.72 41.472 
" style="fill: none; stroke: #000000; stroke-width: 0.8; stroke-linejoin: miter; stroke-linecap: square"/>
   </g>
   <g id="patch_7">
    <path d="M 57.6 307.584 
L 414.72 307.584 
" style="fill: none; stroke: #000000; stroke-width: 0.8; stroke-linejoin: miter; stroke-linecap: square"/>
   </g>
   <g id="patch_8">
    <path d="M 57.6 41.472 
L 414.72 41.472 
" style="fill: none; stroke: #000000; stroke-width: 0.8; stroke-linejoin: miter; stroke-linecap: square"/>
   </g>
   <g id="patch_9">
    <path d="M 96.10452 277.533168 
Q 100.717369 274.93959 105.330217 272.346011 
L 103.982452 269.948923 
Q 109.948054 268.315596 115.913656 266.682268 
Q 111.418343 270.9306 106.92303 275.178933 
L 105.575265 272.781845 
Q 100.962417 275.375424 96.349569 277.969002 
L 96.10452 277.533168 
z
" style="fill: #d67b7b; stroke: #d67b7b; stroke-linecap: round"/>
   </g>
   <g id="text_5">
    <!-- $\frac{1}{N+1}$ -->
    <g transform="translate(69.504 290.952) scale(0.12 -0.12)">
     <use xlink:href="#DejaVuSans-31" transform="translate(69 43.965625) scale(0.7)"/>
     <use xlink:href="#DejaVuSans-Oblique-4e" transform="translate(0 -38.31875) scale(0.7)"/>
     <use xlink:href="#DejaVuSans-2b" transform="translate(66.000977 -38.31875) scale(0.7)"/>
     <use xlink:href="#DejaVuSans-31" transform="translate(138.291016 -38.31875) scale(0.7)"/>
     <path d="M 0 18.965625 
L 0 25.215625 
L 182.827148 25.215625 
L 182.827148 18.965625 
L 0 18.965625 
z
"/>
    </g>
   </g>
   <g id="patch_10">
    <path d="M 277.094369 183.425316 
Q 264.699302 187.8623 252.304235 192.299284 
L 253.231045 194.888401 
Q 247.075371 195.498701 240.919696 196.109001 
Q 246.064305 192.67421 251.208915 189.239419 
L 252.135724 191.828536 
Q 264.530791 187.391552 276.925858 182.954568 
L 277.094369 183.425316 
z
" style="fill: #4c4c4c; stroke: #4c4c4c; stroke-linecap: round"/>
   </g>
   <g id="text_6">
    <!-- $\int_N^{N+1}\frac{1}{x} \; dx$ -->
    <g transform="translate(283.776 174.528) scale(0.12 -0.12)">
     <defs>
      <path id="DejaVuSansDisplay-222b" d="M 2134 5525 
Q 2172 6263 2528 6556 
Q 2884 6850 3218 6850 
Q 3553 6850 3833 6575 
Q 4113 6300 4200 5678 
L 3544 5613 
Q 3469 6188 3219 6188 
Q 2906 6188 2869 5413 
L 2581 -597 
Q 2547 -1334 2187 -1628 
Q 1828 -1922 1497 -1922 
Q 1163 -1922 883 -1647 
Q 603 -1372 516 -750 
L 1172 -684 
Q 1247 -1259 1497 -1259 
Q 1809 -1259 1847 -488 
L 2134 5525 
z
" transform="scale(0.015625)"/>
      <path id="DejaVuSans-Oblique-78" d="M 3841 3500 
L 2234 1784 
L 3219 0 
L 2559 0 
L 1819 1388 
L 531 0 
L -166 0 
L 1556 1844 
L 641 3500 
L 1300 3500 
L 1972 2234 
L 3144 3500 
L 3841 3500 
z
" transform="scale(0.015625)"/>
      <path id="DejaVuSans-Oblique-64" d="M 2675 525 
Q 2444 222 2128 65 
Q 1813 -91 1428 -91 
Q 903 -91 598 267 
Q 294 625 294 1247 
Q 294 1766 478 2236 
Q 663 2706 1013 3078 
Q 1244 3325 1534 3454 
Q 1825 3584 2144 3584 
Q 2481 3584 2739 3421 
Q 2997 3259 3138 2956 
L 3513 4863 
L 4091 4863 
L 3144 0 
L 2566 0 
L 2675 525 
z
M 891 1350 
Q 891 897 1095 644 
Q 1300 391 1663 391 
Q 1931 391 2161 520 
Q 2391 650 2566 903 
Q 2750 1166 2856 1509 
Q 2963 1853 2963 2188 
Q 2963 2622 2758 2865 
Q 2553 3109 2194 3109 
Q 1922 3109 1687 2981 
Q 1453 2853 1288 2613 
Q 1106 2353 998 2009 
Q 891 1666 891 1350 
z
" transform="scale(0.015625)"/>
     </defs>
     <use xlink:href="#DejaVuSansDisplay-222b" transform="translate(0 0.809375)"/>
     <use xlink:href="#DejaVuSans-Oblique-4e" transform="translate(86.744141 85.965625) scale(0.7)"/>
     <use xlink:href="#DejaVuSans-2b" transform="translate(152.745117 85.965625) scale(0.7)"/>
     <use xlink:href="#DejaVuSans-31" transform="translate(225.035156 85.965625) scale(0.7)"/>
     <use xlink:href="#DejaVuSans-Oblique-4e" transform="translate(71.759766 -51.096875) scale(0.7)"/>
     <use xlink:href="#DejaVuSans-31" transform="translate(269.571289 44.60625) scale(0.7)"/>
     <use xlink:href="#DejaVuSans-Oblique-78" transform="translate(271.571289 -24.925) scale(0.7)"/>
     <use xlink:href="#DejaVuSans-Oblique-64" transform="translate(353.666558 0.809375)"/>
     <use xlink:href="#DejaVuSans-Oblique-78" transform="translate(417.14312 0.809375)"/>
     <path d="M 269.571289 19.60625 
L 269.571289 25.85625 
L 314.107422 25.85625 
L 314.107422 19.60625 
L 269.571289 19.60625 
z
"/>
    </g>
   </g>
  </g>
 </g>
 <defs>
  <clipPath id="pf34f17b0e9">
   <rect x="57.6" y="41.472" width="357.12" height="266.112"/>
  </clipPath>
 </defs>
 <defs>
  <pattern id="hbd39944aa4" patternUnits="userSpaceOnUse" x="0" y="0" width="72" height="72">
   <rect x="0" y="0" width="73" height="73" fill="none"/>
   <path d="M -36 36 
L 36 108 
M -24 24 
L 48 96 
M -12 12 
L 60 84 
M 0 0 
L 72 72 
M 12 -12 
L 84 60 
M 24 -24 
L 96 48 
M 36 -36 
L 108 36 
" style="fill: #4c4c4c; stroke: #4c4c4c; stroke-width: 1.0; stroke-linecap: butt; stroke-linejoin: miter"/>
  </pattern>
 </defs>
</svg>
